<svg xmlns="http://www.w3.org/2000/svg" width="227.334" height="59.193" viewBox="0 0 227.334 59.193"><path d="M173.667 48.49h-10.622c-.79 0-1.44-.647-1.44-1.44V22.99c0-.396-.323-.72-.72-.72h-4.103c-.396 0-.72.324-.72.72V52.7c0 .396.324.72.72.72h20.54c-.157-.136-.324-.26-.477-.404-1.342-1.255-2.403-2.78-3.178-4.525zm25.2-26.222H196.2c-.792 0-1.44.648-1.44 1.44V40.32c0 .792-.042 2.086-.093 2.877 0 0-.026.375-.26 1.27-.236.894-.625 1.693-1.168 2.396-.543.704-1.26 1.276-2.155 1.717-.896.44-2.002.66-3.322.66s-2.428-.22-3.322-.66c-.895-.44-1.613-1.013-2.155-1.717-.545-.703-.933-1.503-1.167-2.397-.234-.895-.26-1.27-.26-1.27-.05-.79-.092-2.084-.092-2.876V23.708c0-.792-.648-1.44-1.44-1.44h-2.664c-.792 0-1.44.648-1.44 1.44V40.54c0 .792.057 2.085.126 2.875 0 0 .188 2.137.82 3.647.63 1.512 1.51 2.794 2.64 3.85 1.13 1.057 2.456 1.87 3.982 2.442 1.524.572 3.182.858 4.972.858 1.79 0 3.446-.286 4.972-.858s2.845-1.386 3.96-2.44c1.115-1.058 1.995-2.34 2.64-3.852.646-1.51.84-3.648.84-3.648.07-.79.13-2.082.13-2.874V23.708c-.002-.792-.65-1.44-1.442-1.44zm27.027 26.222H212.89c-.793 0-1.44-.647-1.44-1.44v-7.36h10.862c.792 0 1.44-.647 1.44-1.44v-1.783c0-.792-.648-1.44-1.44-1.44H211.45v-6.48c0-.79.647-1.44 1.44-1.44h12.21c.792 0 1.44-.647 1.44-1.44v-1.96c0-.79-.648-1.44-1.44-1.44h-17.757c-.792 0-1.44.65-1.44 1.44V51.98c0 .792.648 1.44 1.44 1.44h18.55c.79 0 1.44-.648 1.44-1.44v-2.05c0-.79-.65-1.44-1.44-1.44zm-79.636-11.085c-.76-.22-1.384-.417-1.384-.44 0-.025.59-.312 1.312-.638 0 0 1.607-.727 2.604-1.87.997-1.146 1.496-2.598 1.496-4.357 0-1.408-.28-2.61-.836-3.608-.558-.996-1.283-1.81-2.178-2.44-.896-.632-1.914-1.086-3.06-1.365-1.143-.278-2.037-.332-2.037-.332-.79-.047-2.085-.086-2.877-.086h-9.265c-.792 0-1.44.646-1.44 1.44v28.27c0 .79.648 1.44 1.44 1.44h8.34c.793 0 2.088-.035 2.88-.077 0 0 1.47-.078 2.895-.386 1.422-.31 2.684-.814 3.783-1.52 1.103-.703 1.99-1.634 2.664-2.793.675-1.158 1.013-2.588 1.013-4.29 0-2.11-.632-3.798-1.893-5.06-1.26-1.26-3.455-1.89-3.455-1.89zm-12.12-5.99v-3.13c0-.793.648-1.44 1.44-1.44h1.564c.792 0 2.086.05 2.875.114 0 0 2.232.177 3.23.763.996.587 1.495 1.584 1.495 2.992 0 1.35-.484 2.39-1.452 3.124s-2.793.937-2.793.937c-.787.09-2.08.16-2.87.16h-3.49v-3.523zm11.242 15.14c-.455.617-1.027 1.087-1.716 1.41-.69.322-1.445.534-2.266.637-.822.104-.85.104-.85.104-.79.027-2.086.05-2.878.05h-2.093c-.792 0-1.44-.648-1.44-1.44V39.69h3.752c.79 0 2.084.054 2.873.12 0 0 2.51.205 3.625.85 1.114.646 1.672 1.79 1.672 3.432 0 1.027-.227 1.848-.682 2.464z" fill="#55C2EA"/><path d="M136.866 26.125c-.283-.403-.665-.63-1.074-.642-.27-.008-.546-.01-.826-.01-3.54 0-7.047.713-10.533 1.52-2.068.477-4.126 1.033-6.175 1.65.166-.58.333-1.158.457-1.724.4-1.818.728-3.65.986-5.49.668-4.753.86-9.575.594-14.366-.097-1.737-.476-3.526-.476-5.257-.14-1.03-1.032-1.808-2.1-1.808-1.06.016-1.94.822-2.048 1.874-.763 7.39-1.296 14.796-1.804 22.206-.14 2.042-.256 4.088-.385 6.128-3.73 1.33-7.43 2.842-11.084 4.504-.264.138-.54.295-.713.6-.188.327-.216.837-.016 1.15.258.407.725.336 1.112.23 3.467-.944 6.93-1.92 10.4-2.852-.084.717-.184 1.433-.324 2.15-.666 3.415-1.873 6.726-3.575 9.762-1.136 2.028-2.592 3.93-4.455 5.346-1.208.917-2.623 1.6-4.13 1.78-2.088.253-4.23-.492-5.88-1.8-3.322-2.633-4.643-7.63-2.95-11.532.177-.406.386-.797.627-1.168.59-.903 1.384-1.694 2.36-2.15.526-.244 1.17-.372 1.615.096.275.29.4.692.475 1.085.23 1.184.106 2.412-.13 3.6-.4 2.03-1.163 4.033-2.448 5.675.23.55.494 1.057.763 1.486.03.05.068.09.1.14-.005-.008.92-1.03 1-1.133 1.52-1.886 2.57-4.096 3.08-6.47.032-.155.063-.31.09-.466.317-1.727.245-3.222-.214-4.442-.496-1.325-1.455-2.31-2.7-2.773-.534-.2-1.106-.3-1.7-.3-2.32 0-4.728 1.542-6.134 3.927-.87 1.478-1.45 3.377-1.635 5.347-.213 2.3.09 4.726 1.04 6.845.163.362.363.706.598 1.026.116.16.693.648.49.863-.247.264-.682.425-1.002.586-.39.196-.785.374-1.19.535-3.73 1.477-7.91.783-10.33-2.616-1.76-2.47-2.067-5.747-1.273-8.62.1-.36.212-.713.34-1.06.47-1.295 1.14-2.564 2.216-3.42.34-.27.735-.504 1.17-.534.774-.055 1.473.572 1.73 1.305.02.06.026.12.042.18.065.244.215.47.28.72.398 1.514-.106 3.175-.588 4.613-.576 1.72-1.314 3.458-2.505 4.844.097.197.206.392.332.587.16.25.345.493.542.725 1.746-1.825 3.63-4.564 4.32-8.34.316-1.728.244-3.223-.215-4.443-.497-1.324-1.456-2.308-2.7-2.772-.535-.2-1.107-.3-1.7-.3-2.32 0-4.73 1.54-6.135 3.926-.924 1.57-1.41 3.396-1.635 5.19-.302 2.414-.106 4.82.908 7.054.06.132.12.272.146.416.045.24-.856-.055-.952-.088-.395-.14-.774-.323-1.127-.548-1.236-.783-2.006-1.938-2.32-3.357-.13-.593-.16-1.178-.15-1.77-.027-.462-.03-.926-.002-1.393-.007-.12-.032-.24-.034-.36-.018-1.407.164-3.018-.695-4.238-.357-.307-.816-.5-1.323-.51h-.03c-1.054 0-1.95.787-2.08 1.828-.215 1.697.136 3.388.24 5.09.13 2.072.108 4.167-.305 6.21-.135.666-.324 1.35-.767 1.868-.93 1.087-2.755 1.027-3.89.156-1.138-.87-1.682-2.324-1.878-3.742-.403-2.915-.068-5.786.148-8.705.003-.034 0-.07.003-.106-1.016-.125-2.157.177-2.975.797-.245 1.406-.55 2.768-1.036 4.14-.707 1.998-1.752 3.877-3.08 5.53-.64.8-1.362 1.556-2.256 2.06-.893.502-1.983.725-2.96.416-1.78-.563-2.615-2.635-2.72-4.498-.22-3.958 1.9-7.197 4.662-9.818.405-.385.636-.904.65-1.462.003-.09-.01-.18-.018-.27.004-.042.016-.084.018-.128.023-.558-.172-1.092-.55-1.502-.378-.41-.893-.65-1.45-.673-2.763-.115-8.42-.248-12.207-.248-2.606 0-4.966.064-7.197.188-.85.047-1.677.188-2.533.082-.82-.102-1.622-.483-2.382-.813-1.698-.738-3.318-1.64-4.935-2.538-2.493-1.386-4.957-2.743-7.137-4.61-1.535-1.317-4.018-3.456-2.95-5.716.436-.92 1.385-1.47 2.307-1.902 4.46-2.083 9.28-3.08 14.168-3.46.77-.06 1.54-.105 2.31-.135.55-.02 1.106-.034 1.656.014.46.04 1.21.078 1.563.412-.084.19-.276.31-.447.424-.96.633-1.226 1.93-.594 2.893.387.59 1.04.94 1.746.94.41 0 .805-.118 1.148-.343.88-.58 3.704-2.664 3.123-5.198-.568-2.48-3.592-2.88-4.586-3.012-.44-.058-.995-.088-1.653-.088-2.347 0-6.695.4-11.224 1.528-7.037 1.752-11.078 4.39-12.01 7.844-1.49 5.52 5.062 9.783 9.08 12.107 4.803 2.776 10.052 4.69 14.802 7.562 1.556.94 2.81 2.485 3.823 3.99.097.145.192.29.287.438.592.92.987 1.98 1.04 3.08.104 2.177-1.188 4.034-2.848 5.32-3.977 3.08-9.967 4.073-14.878 3.664-3.28-.274-6.6-1.536-8.746-4.034-1.24-1.444-2.056-3.336-1.874-5.23.216-2.26 1.815-4.2 3.74-5.4 2.667-1.667 5.902-2.38 8.966-2.898.95-.16 1.907-.292 2.864-.416-.235-.135-.465-.277-.704-.406-1.84-.993-3.88-1.59-5.828-2.36-2.593.646-4.868 1.456-6.857 2.45-2.697 1.35-4.6 3.334-5.5 5.736-1.08 2.882-.556 6.393 1.335 8.946 3.273 4.42 9.363 5.348 13.896 5.348.674 0 1.36-.02 2.044-.062 5.588-.337 12.92-1.625 16.11-5.855 1.458-1.93 1.91-4.21 1.342-6.776-.5-2.255-1.79-4.108-3.34-5.77-.43-.462-.854-.922-1.273-1.39-.058-.063-.215-.178-.21-.272.008-.115.074-.066.157-.097.08-.03.574-.028.668-.003.504-.005 1.007-.01 1.524-.01 2.05 0 6.052.04 7.938.097-1.795 2.35-2.72 4.64-2.804 6.936-.09 2.51.78 5.053 2.39 6.98 1.47 1.76 3.42 2.775 5.353 2.786 1.154 0 2.303-.325 3.443-.967 1.83-1.03 3.393-2.632 4.745-4.872.615 2.076 1.808 3.763 3.364 4.758 1.006.644 2.17.984 3.364.984 1.203 0 2.36-.364 3.258-1.023.818-.6 1.484-1.452 2.036-2.603.32-.668.58-1.336.794-2.05 1.643 1.393 3.77 2.14 6.332 2.247 1.498 1.935 3.637 3.13 6.3 3.466.765.096 1.532.145 2.28.145 4.105 0 7.156-1.453 9.04-2.72 1.233 1.12 2.744 1.964 4.5 2.5 1.177.36 2.364.543 3.53.543 4.79 0 8.496-2.908 11.05-6.704 1.014-1.506 2.22-3.47 3.458-5.88-.004 7.24.438 12.266 1.316 14.964.28.864 1.08 1.443 1.987 1.443.218 0 .436-.034.646-.102 1.096-.357 1.697-1.54 1.34-2.635-.763-2.346-1.522-8.382-.872-23.758 2.307-.58 4.617-1.14 6.938-1.624 3.48-.726 6.916-1.422 10.44-1.422.253 0 .507.004.756.01h.037c.825 0 1.51-.918 1.526-2.047.013-.56-.14-1.09-.422-1.492z" fill="#000000" style="
    /* stroke: #934545; */
"/></svg>